<svg width="29" height="20" viewBox="0 0 29 20" fill="none" xmlns="http://www.w3.org/2000/svg">
<path d="M14.5 2.66667C19.4959 2.66667 23.9514 5.50667 26.1264 10C23.9514 14.4933 19.4959 17.3333 14.5 17.3333C9.50409 17.3333 5.04864 14.4933 2.87364 10C5.04864 5.50667 9.50409 2.66667 14.5 2.66667ZM14.5 0C7.90909 0 2.28045 4.14667 0 10C2.28045 15.8533 7.90909 20 14.5 20C21.0909 20 26.7195 15.8533 29 10C26.7195 4.14667 21.0909 0 14.5 0ZM14.5 6.66667C16.3191 6.66667 17.7955 8.16 17.7955 10C17.7955 11.84 16.3191 13.3333 14.5 13.3333C12.6809 13.3333 11.2045 11.84 11.2045 10C11.2045 8.16 12.6809 6.66667 14.5 6.66667ZM14.5 4C11.2309 4 8.56818 6.69333 8.56818 10C8.56818 13.3067 11.2309 16 14.5 16C17.7691 16 20.4318 13.3067 20.4318 10C20.4318 6.69333 17.7691 4 14.5 4Z" fill="#1BD3FE"/>
</svg>
